<svg width="133" height="92" viewBox="0 0 133 92" fill="none" xmlns="http://www.w3.org/2000/svg">
<path d="M12.5562 34.0181L13.2261 38.6118L14.207 34.4727L21.0977 10.1641H24.9736L31.6968 34.4727L32.6538 38.6836L33.3955 33.9941L38.8027 10.1641H43.4204L34.9746 45H30.7876L23.6099 19.6147L23.0596 16.959L22.5093 19.6147L15.0684 45H10.8813L2.45947 10.1641H7.05322L12.5562 34.0181ZM66.7241 35.9082H52.1294L48.8516 45H44.1143L57.417 10.1641H61.4365L74.7632 45H70.0498L66.7241 35.9082ZM53.5171 32.1279H65.3604L59.4268 15.8345L53.5171 32.1279ZM88.8794 38.8989L98.8325 10.1641H103.857L90.937 45H86.8696L73.9736 10.1641H78.9741L88.8794 38.8989ZM128.237 28.8979H113.14V41.2437H130.678V45H108.546V10.1641H130.438V13.9443H113.14V25.1416H128.237V28.8979Z" fill="#661919"/>
<path opacity="0.2" d="M11.5562 57.9819L12.2261 53.3882L13.207 57.5273L20.0977 81.8359H23.9736L30.6968 57.5273L31.6538 53.3164L32.3955 58.0059L37.8027 81.8359H42.4204L33.9746 47H29.7876L22.6099 72.3853L22.0596 75.041L21.5093 72.3853L14.0684 47H9.88135L1.45947 81.8359H6.05322L11.5562 57.9819ZM65.7241 56.0918H51.1294L47.8516 47H43.1143L56.417 81.8359H60.4365L73.7632 47H69.0498L65.7241 56.0918ZM52.5171 59.8721H64.3604L58.4268 76.1655L52.5171 59.8721ZM87.8794 53.1011L97.8325 81.8359H102.857L89.937 47H85.8696L72.9736 81.8359H77.9741L87.8794 53.1011ZM127.237 63.1021H112.14V50.7563H129.678V47H107.546V81.8359H129.438V78.0557H112.14V66.8584H127.237V63.1021Z" fill="#FCECDA"/>
</svg>
